<svg width="393" height="852" viewBox="0 0 393 852" fill="none" xmlns="http://www.w3.org/2000/svg">
<g clip-path="url(#clip0_272823_11)">
<rect width="393" height="852" fill="white"/>
<rect x="130" y="838" width="134" height="5" rx="2.5" fill="black"/>
<path fill-rule="evenodd" clip-rule="evenodd" d="M0 0H40C17.9086 0 1.02597e-05 17.9086 9.98798e-06 40L0 812V0ZM0 812C0 834.091 17.9086 852 40 852H0V812ZM393 40C393 17.9086 375.091 0 353 0H393V40ZM353 852C375.091 852 393 834.091 393 812V852H353ZM150.5 10C140.283 10 132 18.2827 132 28.5C132 38.7173 140.283 47 150.5 47H239.5C249.717 47 258 38.7173 258 28.5C258 18.2827 249.717 10 239.5 10H150.5Z" fill="black"/>
<path opacity="0.35" fill-rule="evenodd" clip-rule="evenodd" d="M352.091 22.3333C353.698 22.3333 355 23.5273 355 25V31C355 32.4728 353.698 33.6667 352.091 33.6667H333.909C332.302 33.6667 331 32.4728 331 31V25C331 23.5273 332.302 22.3333 333.909 22.3333H352.091ZM352.091 23.3333H333.909C332.958 23.3333 332.177 24.0031 332.098 24.8562L332.091 25V31C332.091 31.872 332.821 32.5876 333.752 32.6606L333.909 32.6667H352.091C353.042 32.6667 353.823 31.997 353.902 31.1438L353.909 31V25C353.909 24.128 353.178 23.4124 352.248 23.3395L352.091 23.3333ZM357.328 28C357.328 28.8731 356.805 29.6612 356 30V26C356.805 26.3388 357.328 27.1269 357.328 28Z" fill="black"/>
<path fill-rule="evenodd" clip-rule="evenodd" d="M64.0994 27.8346C64.0994 31.8079 62.3171 34.1543 59.3167 34.1543C57.1583 34.1543 55.5151 32.8789 55.1635 30.9413H57.2646C57.5344 31.8324 58.3193 32.3884 59.333 32.3884C61.0581 32.3884 62.08 30.7778 62.08 28.0799H61.941C61.3851 29.1999 60.265 29.8458 58.8834 29.8458C56.6351 29.8458 55 28.1943 55 25.9215C55 23.5016 56.815 21.7765 59.3821 21.7765C61.1071 21.7765 62.4724 22.5941 63.2655 24.1065C63.8132 25.0794 64.0994 26.3385 64.0994 27.8346ZM57.0684 25.8561C57.0684 27.2051 58.0331 28.1698 59.3902 28.1698C60.7392 28.1698 61.7284 27.2051 61.7284 25.8888C61.7284 24.5562 60.7147 23.5342 59.3984 23.5342C58.0821 23.5342 57.0684 24.5398 57.0684 25.8561ZM67.468 26.4856C68.2447 26.4856 68.7761 25.9378 68.7761 25.2021C68.7761 24.4581 68.2447 23.9103 67.468 23.9103C66.6995 23.9103 66.1599 24.4581 66.1599 25.2021C66.1599 25.9378 66.6995 26.4856 67.468 26.4856ZM68.7761 31.3255C68.7761 32.0613 68.2447 32.6173 67.468 32.6173C66.6995 32.6173 66.1599 32.0613 66.1599 31.3255C66.1599 30.5816 66.6995 30.0338 67.468 30.0338C68.2447 30.0338 68.7761 30.5816 68.7761 31.3255ZM78.6115 33.8681V31.6689H80.2058V29.8866H78.6115V22.0708H75.6356C73.5509 25.2102 71.8913 27.8346 70.8284 29.7885V31.6689H76.5922V33.8681H78.6115ZM72.7824 29.9357H76.6249V23.7877H76.5104C75.3822 25.4555 74.1559 27.3931 72.7824 29.8131V29.9357ZM87 33.8681V22.0708H84.8989L81.8167 24.2292V26.2567L84.7517 24.1965H84.8907V33.8681H87ZM320.283 26.9863C318.677 25.4595 316.546 24.6081 314.33 24.608C312.114 24.608 309.983 25.4594 308.377 26.9863C308.256 27.1044 308.062 27.1029 307.943 26.983L306.787 25.8163C306.727 25.7556 306.693 25.6733 306.694 25.5877C306.694 25.5021 306.729 25.4203 306.79 25.3603C311.005 21.3208 317.655 21.3208 321.87 25.3603C321.931 25.4203 321.965 25.5022 321.966 25.5878C321.966 25.6734 321.933 25.7556 321.873 25.8163L320.717 26.983C320.597 27.1027 320.404 27.1042 320.283 26.9863ZM317.624 29.6733C316.722 28.8561 315.548 28.4036 314.33 28.4037C313.114 28.4042 311.94 28.8567 311.039 29.6733C310.916 29.7893 310.724 29.7868 310.605 29.6677L309.451 28.501C309.39 28.4399 309.356 28.3569 309.357 28.2706C309.358 28.1843 309.393 28.1019 309.455 28.042C312.203 25.4856 316.459 25.4856 319.208 28.042C319.27 28.1019 319.305 28.1843 319.306 28.2705C319.307 28.3568 319.273 28.4398 319.212 28.501L318.058 29.6677C317.939 29.7868 317.746 29.7893 317.624 29.6733ZM316.549 31.188C316.611 31.1274 316.645 31.044 316.643 30.9575C316.641 30.871 316.604 30.789 316.54 30.731C315.264 29.6521 313.396 29.6521 312.121 30.731C312.056 30.789 312.019 30.8709 312.017 30.9574C312.015 31.0439 312.049 31.1274 312.111 31.188L314.109 33.2037C314.167 33.2629 314.247 33.2962 314.33 33.2962C314.414 33.2962 314.493 33.2629 314.552 33.2037L316.549 31.188ZM334.333 24.3333C333.597 24.3333 333 24.9303 333 25.6667V30.3333C333 31.0697 333.597 31.6667 334.333 31.6667H351.667C352.403 31.6667 353 31.0697 353 30.3333V25.6667C353 24.9303 352.403 24.3333 351.667 24.3333H334.333ZM296.667 22.6667H295.667C295.114 22.6667 294.667 23.1144 294.667 23.6667V32.3333C294.667 32.8856 295.114 33.3333 295.667 33.3333H296.667C297.219 33.3333 297.667 32.8856 297.667 32.3333V23.6667C297.667 23.1144 297.219 22.6667 296.667 22.6667ZM291 25H292C292.552 25 293 25.4477 293 26V32.3333C293 32.8856 292.552 33.3333 292 33.3333H291C290.448 33.3333 290 32.8856 290 32.3333V26C290 25.4477 290.448 25 291 25ZM287.333 27.3333H286.333C285.781 27.3333 285.333 27.7811 285.333 28.3333V32.3333C285.333 32.8856 285.781 33.3333 286.333 33.3333H287.333C287.885 33.3333 288.333 32.8856 288.333 32.3333V28.3333C288.333 27.7811 287.885 27.3333 287.333 27.3333ZM282.667 29.3333H281.667C281.114 29.3333 280.667 29.7811 280.667 30.3333V32.3333C280.667 32.8856 281.114 33.3333 281.667 33.3333H282.667C283.219 33.3333 283.667 32.8856 283.667 32.3333V30.3333C283.667 29.7811 283.219 29.3333 282.667 29.3333Z" fill="black"/>
</g>
<defs>
<clipPath id="clip0_272823_11">
<rect width="393" height="852" fill="white"/>
</clipPath>
</defs>
</svg>
